#!OML:ASF F:\VICON\USERDATA\INSTALL\SteveWalk\SteveWalk.ASF
:FULLY-SPECIFIED
:DEGREES
182
root 0.743633 16.4043 -4.42801 16.444 -2.21009 2.07659
lowerback -13.6555 -0.865973 -3.92419
upperback -4.5247 -0.614668 -0.397287
thorax 2.9206 -0.298824 1.70162
lowerneck -6.86422 -1.54437 -1.36657
upperneck 12.6629 -2.15139 1.67267
head 4.9629 -1.01457 0.606523
rclavicle 1.72694e-015 1.78906e-015
rhumerus -49.4812 -27.3086 -65.5594
rradius 15.6925
rwrist 13.5986
rhand -12.337 -35.2761
rfingers 7.12502
rthumb 13.7322 -64.803
lclavicle 1.72694e-015 1.78906e-015
lhumerus -30.8716 13.0134 79.7384
lradius 24.1352
lwrist -11.275
lhand -16.4643 -15.5193
lfingers 7.12502
lthumb 9.75221 14.2349
rfemur -46.2866 -4.66523 20.4495
rtibia 68.25
rfoot -11.2048 -0.387845
rtoes -18.2261
lfemur -26.69 0.70819 -24.9145
ltibia 35.4155
lfoot -22.8826 -0.326256
ltoes -7.55954
183
root 0.742317 16.3959 -4.21818 16.485 -1.78244 1.88905
lowerback -13.6181 -0.94856 -3.56333
upperback -4.58424 -0.777651 -0.307979
thorax 2.84541 -0.378287 1.56616
lowerneck -6.77775 -1.54114 -1.45277
upperneck 12.7836 -2.15733 1.80519
head 4.98794 -1.01332 0.661668
rclavicle -6.98697e-015 9.93923e-017
rhumerus -52.7819 -30.8091 -60.0035
rradius 14.3218
rwrist 19.4365
rhand -12.4854 -34.4364
rfingers 7.12502
rthumb 13.5892 -63.9729
lclavicle -6.98697e-015 9.93923e-017
lhumerus -29.9072 10.8796 80.6435
lradius 25.2857
lwrist -9.38691
lhand -17.2179 -16.635
lfingers 7.12502
lthumb 9.02505 13.1519
rfemur -47.109 -4.63402 20.8318
rtibia 66.1833
rfoot -11.5995 -0.947985
rtoes -15.8364
lfemur -25.7821 1.18097 -24.7364
ltibia 35.1927
lfoot -23.5065 -0.857719
ltoes -7.54868
184
root 0.741518 16.3766 -4.00051 16.4508 -1.39049 1.9639
lowerback -13.7026 -1.12441 -3.49441
upperback -4.57511 -1.01798 -0.228003
thorax 2.91387 -0.498553 1.57134
lowerneck -6.63858 -1.55349 -1.64222
upperneck 12.8979 -2.16724 1.89371
head 5.00277 -1.02218 0.720316
rclavicle 8.63005e-015 -1.09332e-015
rhumerus -56.7734 -34.5002 -53.1265
rradius 12.9674
rwrist 26.1893
rhand -12.6125 -34.5847
rfingers 7.12502
rthumb 13.4667 -64.1294
lclavicle 8.63005e-015 -1.09332e-015
lhumerus -29.2546 8.96897 81.3987
lradius 26.8926
lwrist -7.35471
lhand -17.4308 -17.1861
lfingers 7.12502
lthumb 8.81965 12.6096
rfemur -47.7347 -4.68947 20.9154
rtibia 63.9126
rfoot -12.1309 -1.94847
rtoes -13.5448
lfemur -24.7002 1.75883 -24.8413
ltibia 34.8982
lfoot -24.1833 -1.29047
ltoes -8.66058
185
root 0.731813 16.3601 -3.78399 16.3799 -0.944854 2.20853
lowerback -13.7723 -1.36227 -3.7476
upperback -4.43919 -1.29395 -0.174693
thorax 3.11446 -0.639404 1.72253
lowerneck -6.83467 -1.58489 -1.50953
upperneck 13.0391 -2.20029 1.70688
head 5.0768 -1.04239 0.636685
rclavicle -6.20426e-015 -1.44616e-014
rhumerus -61.3717 -37.9471 -45.5465
rradius 11.9449
rwrist 33.1247
rhand -12.571 -35.4342
rfingers 7.12502
rthumb 13.5067 -64.9762
lclavicle -6.20426e-015 -1.44616e-014
lhumerus -28.2339 7.12263 82.1005
lradius 28.8004
lwrist -5.08742
lhand -17.1815 -16.0736
lfingers 7.12502
lthumb 9.06019 13.7118
rfemur -48.2009 -4.78377 20.853
rtibia 61.3697
rfoot -12.1396 -3.39602
rtoes -12.1293
lfemur -23.579 2.13825 -25.0091
ltibia 34.4777
lfoot -24.71 -2.12356
ltoes -8.65519
186
root 0.718802 16.3527 -3.57645 16.4043 -0.698101 2.5392
lowerback -13.6801 -1.4712 -4.15856
upperback -4.48482 -1.38729 -0.193262
thorax 3.02944 -0.682888 1.92154
lowerneck -6.73895 -1.64504 -1.43009
upperneck 13.128 -2.28285 1.62598
head 5.08761 -1.08444 0.593798
rclavicle -1.25677e-014 -3.03147e-015
rhumerus -66.4026 -40.0539 -38.3221
rradius 11.3781
rwrist 38.7743
rhand -12.7476 -36.0008
rfingers 7.12502
rthumb 13.3365 -65.554
lclavicle -1.25677e-014 -3.03147e-015
lhumerus -27.37 5.177 82.6736
lradius 30.4826
lwrist -3.35577
lhand -17.4407 -15.3557
lfingers 7.12502
lthumb 8.81008 14.4404
rfemur -48.7899 -4.756 20.6564
rtibia 58.5709
rfoot -11.7319 -4.41924
rtoes -9.66596
lfemur -22.501 2.5156 -25.2728
ltibia 33.8993
lfoot -25.0161 -2.83589
ltoes -8.54216
187
root 0.71213 16.3603 -3.36717 16.4621 -0.401669 2.46592
lowerback -13.5683 -1.50799 -4.02944
upperback -4.55952 -1.46259 -0.126964
thorax 2.89452 -0.716785 1.90885
lowerneck -6.45212 -1.68312 -1.59761
upperneck 13.038 -2.34368 1.82513
head 5.01637 -1.11152 0.681775
rclavicle -4.21796e-015 1.36664e-015
rhumerus -70.7181 -40.9444 -32.3907
rradius 11.0323
rwrist 42.8386
rhand -13.2486 -35.7486
rfingers 7.12502
rthumb 12.8536 -65.3328
lclavicle -4.21796e-015 1.36664e-015
lhumerus -26.7422 3.34373 83.1334
lradius 32.1095
lwrist -1.86801
lhand -18.2367 -16.2248
lfingers 7.12502
lthumb 8.04192 13.6022
rfemur -49.2705 -4.74953 20.8778
rtibia 55.5214
rfoot -12.4315 -4.73948
rtoes -7.56597
lfemur -21.3398 2.865 -25.0824
ltibia 33.1408
lfoot -25.2455 -3.37362
ltoes -8.83292
188
root 0.705574 16.3728 -3.15055 16.499 0.161384 2.05417
lowerback -13.5136 -1.59555 -3.46696
upperback -4.51767 -1.65877 0.0192118
thorax 2.91224 -0.81587 1.71365
lowerneck -6.52384 -1.7352 -1.55336
upperneck 12.9336 -2.42017 1.85096
head 4.99745 -1.14506 0.677362
rclavicle 1.16108e-014 8.11911e-015
rhumerus -75.917 -42.0619 -24.9531
rradius 10.6247
rwrist 48.096
rhand -14.159 -35.3492
rfingers 7.12502
rthumb 11.9758 -64.9866
lclavicle 1.16108e-014 8.11911e-015
lhumerus -25.8933 1.72738 83.358
lradius 33.6805
lwrist -0.312532
lhand -18.7625 -16.8397
lfingers 7.12502
lthumb 7.5344 13.0061
rfemur -49.4763 -4.90733 21.5312
rtibia 52.2616
rfoot -13.2434 -5.49312
rtoes -9.39158
lfemur -20.0892 2.97498 -24.4079
ltibia 32.243
lfoot -25.3908 -4.20961
ltoes -8.26876
189
root 0.701065 16.3683 -2.94219 16.5051 0.836136 2.19981
lowerback -13.3567 -1.80363 -3.43737
upperback -4.49421 -1.94283 0.0118165
thorax 2.86678 -0.95654 1.64706
lowerneck -6.42999 -1.73745 -1.35314
upperneck 12.6465 -2.43264 1.77711
head 4.88994 -1.14785 0.622649
rclavicle 2.02857e-014 2.64011e-015
rhumerus -80.8515 -42.5432 -17.9979
rradius 10.4045
rwrist 52.7431
rhand -15.1875 -35.8452
rfingers 7.12502
rthumb 10.984 -65.5378
lclavicle 2.02857e-014 2.64011e-015
lhumerus -24.8491 0.291876 83.4505
lradius 34.8658
lwrist 0.887973
lhand -19.4291 -16.802
lfingers 7.12502
lthumb 6.8909 13.0659
rfemur -49.6053 -5.35483 21.5344
rtibia 48.9428
rfoot -13.7308 -5.98723
rtoes -11.9591
lfemur -18.8153 2.90325 -24.3094
ltibia 31.2887
lfoot -25.4276 -5.25713
ltoes -7.23996
190
root 0.680906 16.3587 -2.72984 16.5014 0.976249 2.73158
lowerback -13.3584 -1.92237 -4.12546
upperback -4.46719 -2.00649 -0.0717957
thorax 2.91686 -0.987593 1.93628
lowerneck -6.21061 -1.73386 -1.33335
upperneck 12.4593 -2.442 1.87878
head 4.79634 -1.1473 0.652775
rclavicle 1.73826e-014 1.0781e-014
rhumerus -84.9143 -42.4063 -12.4332
rradius 10.3293
rwrist 56.1626
rhand -16.1921 -35.9496
rfingers 7.12502
rthumb 10.0148 -65.6913
lclavicle 1.73826e-014 1.0781e-014
lhumerus -23.8975 -1.04632 83.5555
lradius 35.9124
lwrist 1.71947
lhand -20.6986 -17.329
lfingers 7.12502
lthumb 5.66538 12.5753
rfemur -49.6989 -5.05661 20.8173
rtibia 45.4904
rfoot -14.0173 -6.48355
rtoes -11.6254
lfemur -17.5559 3.19587 -24.685
ltibia 30.3818
lfoot -25.4501 -6.11535
ltoes -6.83148
191
root 0.671187 16.3475 -2.51293 16.4776 1.28009 2.88701
lowerback -13.3314 -2.02668 -4.24652
upperback -4.44313 -2.13047 -0.0363325
thorax 2.94063 -1.04937 2.02177
lowerneck -6.06843 -1.78363 -1.49095
upperneck 12.3382 -2.50561 1.9919
head 4.73954 -1.18027 0.71128
rclavicle -2.13538e-015 7.45443e-015
rhumerus -87.0579 -41.7201 -9.51349
rradius 10.366
rwrist 57.5703
rhand -16.9293 -35.0666
rfingers 7.12502
rthumb 9.30355 -64.8413
lclavicle -2.13538e-015 7.45443e-015
lhumerus -23.1001 -2.35771 83.6666
lradius 37.1216
lwrist 2.94744
lhand -21.8108 -18.1079
lfingers 7.12502
lthumb 4.59144 11.8224
rfemur -49.6093 -5.15378 20.702
rtibia 41.9782
rfoot -13.7371 -7.02342
rtoes -15.8682
lfemur -16.2092 3.66989 -24.6713
ltibia 29.4728
lfoot -25.6801 -6.70524
ltoes -8.44084
192
root 0.669443 16.3392 -2.29601 16.4097 1.8453 2.65563
lowerback -13.4097 -2.08767 -3.76076
upperback -4.2878 -2.26959 0.040175
thorax 3.14201 -1.12413 1.80065
lowerneck -5.93353 -1.90123 -1.47876
upperneck 12.0083 -2.65552 1.94754
head 4.61757 -1.25806 0.689162
rclavicle 4.89989e-014 9.86469e-015
rhumerus -87.4546 -40.8594 -9.30751
rradius 10.4832
rwrist 56.9522
rhand -16.8126 -35.1985
rfingers 7.12502
rthumb 9.41621 -64.9681
lclavicle 4.89989e-014 9.86469e-015
lhumerus -22.1116 -3.52784 83.6779
lradius 38.2756
lwrist 3.933
lhand -22.4036 -18.9212
lfingers 7.12502
lthumb 4.019 11.0206
rfemur -49.2796 -5.5993 21.1768
rtibia 38.3221
rfoot -13.1219 -7.40269
rtoes -23.0411
lfemur -14.8296 4.11154 -24.2053
ltibia 28.5742
lfoot -25.8383 -7.28748
ltoes -9.97933
193
root 0.661388 16.3261 -2.07837 16.3328 2.2241 2.78066
lowerback -13.4953 -2.14549 -3.82905
upperback -4.06383 -2.32941 0.07272
thorax 3.43101 -1.16087 1.85621
lowerneck -5.92536 -2.00796 -1.40177
upperneck 11.6579 -2.78841 1.84302
head 4.50871 -1.32733 0.638264
rclavicle -3.70702e-015 -4.62174e-015
rhumerus -88.1917 -40.2396 -8.4784
rradius 10.5905
rwrist 56.6482
rhand -15.5927 -36.1055
rfingers 7.12502
rthumb 10.5931 -65.8186
lclavicle -3.70702e-015 -4.62174e-015
lhumerus -21.036 -4.8192 83.7653
lradius 39.5529
lwrist 4.97855
lhand -22.7948 -19.3832
lfingers 7.12502
lthumb 3.6413 10.5654
rfemur -48.8715 -5.60907 20.9085
rtibia 34.6085
rfoot -13.2347 -6.92126
rtoes -21.5444
lfemur -13.4396 4.32021 -24.1025
ltibia 27.7247
lfoot -25.8424 -7.84241
ltoes -10.0948
